# xmcd
#
# Track frame offsets: 
#        150
#        15155
#        42480
#        66141
#        83826
#        105482
#        123200
#        128122
#        152295
#        168037
#        179993
#        204952
#        232164
#
# Disc length: 3215 seconds
#
# Revision: 0
# Processed by: cddbd v1.5.2PL0 Copyright (c) Steve Scherf et al.
# Submitted via: ExactAudioCopy v1.0b1
#
DISCID=9d0c8d0d
DTITLE=Skudge - Phantom
DYEAR=2011
DGENRE=Techno
TTITLE0=Ursa Major
TTITLE1=In Between
TTITLE2=Sandblast
TTITLE3=Eleven
TTITLE4=Breaking Strain
TTITLE5=Downtown
TTITLE6=Vanisher
TTITLE7=Realtime
TTITLE8=Pressure Drop
TTITLE9=Blackout
TTITLE10=Shivers
TTITLE11=Phantom
TTITLE12=Modular Storm
EXTD=
EXTT0=
EXTT1=
EXTT2=
EXTT3=
EXTT4=
EXTT5=
EXTT6=
EXTT7=
EXTT8=
EXTT9=
EXTT10=
EXTT11=
EXTT12=
PLAYORDER=
